<?xml version="1.0" encoding="utf-8"?>
<!-- Generator: Adobe Illustrator 27.7.0, SVG Export Plug-In . SVG Version: 6.00 Build 0)  -->
<svg version="1.1" id="Layer_1" xmlns="http://www.w3.org/2000/svg" xmlns:xlink="http://www.w3.org/1999/xlink" x="0px" y="0px"
	 viewBox="0 0 500 500" style="enable-background:new 0 0 500 500;" xml:space="preserve">
<style type="text/css">
	.st0{fill:#CD1A21;}
	.st1{fill:#FFFFFF;}
</style>
<rect x="-3.8" y="-3.8" class="st0" width="507.6" height="507.6"/>
<g>
	<g>
		<polygon class="st1" points="406.9,182.1 379.1,182.1 355.6,107 144.4,107 120.9,182.1 93.1,182.1 93.1,214.5 110.8,214.5 
			106.8,227.5 106.8,319.6 177.1,319.6 177.1,279.1 322.9,279.1 322.9,319.6 393.2,319.6 393.2,227.5 389.2,214.5 406.9,214.5 		"/>
		<polygon class="st0" points="309.2,155.5 190.8,155.5 177.6,201.2 322.4,201.2 		"/>
	</g>
	<g>
		<g>
			<path class="st1" d="M109.8,373.4l7.2-27.8l-0.5-4.1H135l-0.5,4.1l7.2,27.8l1.9,4.1H131l0.5-4.1l-0.6-2.6h-10.2l-0.6,2.6l0.5,4.1
				h-12.6L109.8,373.4z M128.9,362.3l-3.1-13l-3.1,13H128.9z"/>
			<path class="st1" d="M154.3,375.6l-3.2-3.6c-1.1-1.2-1.7-2.8-1.7-4.6v-16.1c0-1.8,0.6-3.3,1.7-4.6l3.2-3.6
				c1.1-1.2,2.6-1.8,4.2-1.8h11.2c1.6,0,3,0.6,4.2,1.8l3.2,3.6c1.1,1.2,1.7,2.5,1.7,4.1v2.2l-10.3,2.1v-1.4c0-1.8-1.4-3.1-3.3-3.1
				H163c-1.9,0-3.3,1.5-3.3,3.7v10.6c0,2.2,1.4,3.7,3.3,3.7h2.2c1.9,0,3.3-1.3,3.3-3.2v-1.4l10.3,2.2v1.9c0,1.5-0.7,2.9-1.7,4.1
				l-3.2,3.6c-1.1,1.2-2.6,1.9-4.2,1.9h-11.3C156.9,377.5,155.4,376.9,154.3,375.6z"/>
			<path class="st1" d="M187.4,373.4v-27.8l-0.9-4.1h24.7l1.4,9.8l-3.5-1h-11.3v5h9.5l2.6-0.7v9.6l-2.6-0.7h-9.5v5.3h11.7l4.4-1
				l-1.9,9.8h-25.4L187.4,373.4z"/>
			<path class="st1" d="M240.8,373.4v-22.7h-5.8l-3.5,1l1.4-10.3H259l1.4,10.3l-3.5-1h-5.8v22.7l0.9,4.1h-12.1L240.8,373.4z"/>
			<path class="st1" d="M264.9,373.4l7.2-27.8l-0.5-4.1h18.4l-0.5,4.1l7.2,27.8l1.9,4.1h-12.6l0.5-4.1l-0.6-2.6h-10.2l-0.6,2.6
				l0.5,4.1H263L264.9,373.4z M284,362.3l-3.1-13l-3.1,13H284z"/>
			<path class="st1" d="M305.3,373.1l8.3-14.6l-8.1-12.5l-3.1-4.5h13l1.4,4.1l2.4,4.4l2.4-4.4l1.4-4.1h12.5l-3.1,4.5l-7.4,12.9
				l9,14.2l3.1,4.5h-12.9l-1.6-4.1l-3.3-6.2l-3.3,6.2l-1.5,4.1h-12.1L305.3,373.1z"/>
			<path class="st1" d="M345,373.4v-27.9l-0.9-4h12.1l-0.9,4.1v27.9l0.9,4.1h-12.1L345,373.4z"/>
			<path class="st1" d="M364.1,367.7l4.4,1h9.9c1.7,0,2.8-0.4,2.8-1.3V367c0-0.4-0.2-0.9-1.1-1.2l-11.1-4.7c-2.5-1-4.6-3.7-4.6-6.8
				v-3.7c0-1.8,0.6-3.5,1.7-4.6l2.6-2.6c1-1,2.6-1.9,4.3-1.9H389l1.4,9.8l-4.4-1h-8.1c-1.7,0-2.8,0.4-2.8,1.4v0.4
				c0,0.4,0.3,0.9,1.3,1.3l11.2,4.6c2.7,1.1,4.4,3.7,4.4,6.8v3.7c0,1.8-0.6,3.5-1.7,4.6l-2.6,2.6c-1,1-2.6,1.9-4.3,1.9H366
				L364.1,367.7z"/>
		</g>
	</g>
</g>
</svg>